Coordinates
version=1
nRows=29
nColumns=24
inDegrees=yes

Units are S.I. units (second, meters, Newtons, ...)
Angles are in degrees.

endheader
time	pelvis_tilt	pelvis_list	pelvis_rotation	pelvis_tx	pelvis_ty	pelvis_tz	hip_flexion_r	hip_adduction_r	hip_rotation_r	knee_angle_r	ankle_angle_r	subtalar_angle_r	mtp_angle_r	hip_flexion_l	hip_adduction_l	hip_rotation_l	knee_angle_l	ankle_angle_l	subtalar_angle_l	mtp_angle_l	lumbar_extension	lumbar_bending	lumbar_rotation
      1.37500000	      2.04601895	      4.16636761	     -1.32163440	      0.22857793	      1.06833659	      0.32257104	     13.63495456	     -5.62317667	     -1.05734830	    -67.50620984	     -5.16832679	    -13.77894508	      6.75385007	      6.13080556	      8.95218036	     -2.94676276	     -9.03785397	      1.60049159	     -3.57995713	     -2.71514627	      1.06139560	     -1.73502024	      0.40416044
      1.37916667	      2.06357243	      4.14407862	     -1.27400714	      0.23360485	      1.06891595	      0.32242327	     14.21074954	     -5.54438593	     -0.90564924	    -67.45927088	     -4.51229293	    -14.28383386	      6.63076056	      5.75836104	      8.94633627	     -2.88942459	     -8.95292055	      1.80260266	     -3.48036443	     -2.74024927	      1.00203004	     -1.70380047	      0.32252816
      1.38333333	      2.06860885	      4.12181570	     -1.22639529	      0.23861958	      1.06946536	      0.32228868	     14.78934814	     -5.45959323	     -0.75066236	    -67.36018977	     -3.87645221	    -14.73812764	      6.50154168	      5.39607050	      8.93930761	     -2.82463534	     -8.86005978	      2.00155407	     -3.38340521	     -2.76782187	      0.95296598	     -1.67644967	      0.23980755
      1.38750000	      2.07807496	      4.09976433	     -1.17923101	      0.24362796	      1.07001357	      0.32215879	     15.34837573	     -5.37386115	     -0.59666446	    -67.20196726	     -3.26220949	    -15.13249898	      6.37330085	      5.02531085	      8.93337305	     -2.75209067	     -8.76043658	      2.19177457	     -3.29787186	     -2.79652435	      0.89971827	     -1.65054545	      0.15795212
      1.39166667	      2.09069209	      4.09591743	     -1.16506997	      0.24859320	      1.07053460	      0.32202241	     15.90854267	     -5.30470558	     -0.41196863	    -67.00013368	     -2.74047712	    -15.43592388	      6.28877089	      4.64041602	      8.95284214	     -2.63210409	     -8.61794298	      2.34082272	     -3.22369553	     -2.81519431	      0.84499694	     -1.58508318	      0.08650568
      1.39583333	      2.10013861	      4.06127947	     -1.11689968	      0.25359429	      1.07106646	      0.32194487	     16.43657724	     -5.19504694	     -0.26235480	    -66.72772995	     -2.11755057	    -15.75441213	      6.19422511	      4.26067269	      8.92994466	     -2.55395089	     -8.50037623	      2.52626443	     -3.18021151	     -2.83738914	      0.79588569	     -1.55744607	      0.01420935
      1.40000000	      2.10557461	      4.03716403	     -1.06944271	      0.25855492	      1.07156464	      0.32185849	     16.96098449	     -5.09840021	     -0.11322250	    -66.40473694	     -1.55837193	    -15.99229380	      6.09784126	      3.88417685	      8.92095023	     -2.46085072	     -8.37096937	      2.69438255	     -3.13181589	     -2.86142580	      0.74312728	     -1.53580082	     -0.06088538
      1.40416667	      2.10851663	      4.01279106	     -1.02058055	      0.26355733	      1.07205298	      0.32181475	     17.46733280	     -4.99505596	      0.03276038	    -66.02555549	     -1.01641494	    -16.18169287	      6.00214386	      3.50078889	      8.90958389	     -2.35959873	     -8.22840008	      2.85615915	     -3.09309422	     -2.88671331	      0.69925295	     -1.51484683	     -0.13857381
      1.40833333	      2.11399092	      3.99140042	     -0.97734119	      0.26850697	      1.07251757	      0.32177810	     17.96326039	     -4.89332442	      0.18048884	    -65.59504667	     -0.50626689	    -16.32109342	      5.91165656	      3.11513841	      8.90144165	     -2.25507880	     -8.07301477	      3.00721499	     -3.06636250	     -2.91192545	      0.65246872	     -1.49486478	     -0.21681549
      1.41250000	      2.11269442	      3.96973461	     -0.91897683	      0.27348454	      1.07295761	      0.32176392	     18.44173917	     -4.79053988	      0.31869640	    -65.11148516	      0.04253999	    -16.41334479	      5.80282537	      2.73173923	      8.89141614	     -2.14453648	     -7.92246070	      3.16938183	     -3.05621237	     -2.94453030	      0.60802218	     -1.49070828	     -0.30725821
      1.41666667	      2.11262401	      3.95680240	     -0.87494309	      0.27844412	      1.07336039	      0.32174167	     18.91147697	     -4.69711799	      0.46524671	    -64.58048646	      0.51158090	    -16.44871080	      5.69970843	      2.33976092	      8.89479819	     -2.01956548	     -7.74506558	      3.30595598	     -3.05472308	     -2.97728762	      0.56962919	     -1.48329661	     -0.39577768
      1.42083333	      2.11474768	      3.94747418	     -0.82724031	      0.28339247	      1.07374750	      0.32175173	     19.36308933	     -4.60442183	      0.60475429	    -63.99815981	      0.97987478	    -16.45020520	      5.59406866	      1.94229516	      8.90010814	     -1.88885407	     -7.55858664	      3.43881112	     -3.07363123	     -3.01292542	      0.52916801	     -1.49182466	     -0.48666707
      1.42500000	      2.11103080	      3.94618727	     -0.77962200	      0.28835402	      1.07409540	      0.32177896	     19.80399814	     -4.51823099	      0.74484819	    -63.36448945	      1.38692222	    -16.42391372	      5.50006180	      1.54472629	      8.91377446	     -1.75396072	     -7.35902147	      3.55196051	     -3.09972739	     -3.04626305	      0.49313139	     -1.50909164	     -0.57040295
      1.42916667	      2.10357778	      3.95107377	     -0.72584555	      0.29331960	      1.07440936	      0.32181583	     20.23065453	     -4.44182405	      0.87636839	    -62.68497416	      1.80709970	    -16.35570618	      5.39461873	      1.14770517	      8.93239499	     -1.61127089	     -7.15800225	      3.67169956	     -3.15274698	     -3.08584372	      0.46038349	     -1.53402428	     -0.66647020
      1.43333333	      2.09464788	      3.94836151	     -0.62577125	      0.29823816	      1.07469626	      0.32180027	     20.63413976	     -4.37266337	      0.95598325	    -61.95724634	      2.32725854	    -16.11624320	      5.17960129	      0.76115784	      8.94398318	     -1.45423070	     -6.97477915	      3.80532886	     -3.30510642	     -3.17284036	      0.36635627	     -1.56808709	     -0.84940220
      1.43750000	      2.04952659	      3.96986056	     -0.58844245	      0.30318640	      1.07488448	      0.32196237	     21.07794423	     -4.29538868	      1.10927133	    -61.17075267	      2.44102431	    -16.10700814	      5.14843972	      0.40463465	      8.97035162	     -1.35846601	     -6.76214137	      3.83176309	     -3.29167388	     -3.18485785	      0.31161152	     -1.62827715	     -0.87221487
      1.44166667	      2.06615606	      4.00574234	     -0.57610702	      0.30822215	      1.07513038	      0.32203094	     21.43397700	     -4.24671683	      1.25828073	    -60.34852506	      2.72685547	    -16.04250120	      5.06724308	     -0.05111821	      9.02853983	     -1.19076468	     -6.48895034	      3.93199165	     -3.34495779	     -3.21901282	      0.37541575	     -1.67832460	     -0.94382838
      1.44583333	      1.99766207	      4.03702643	     -0.51598544	      0.31318020	      1.07522084	      0.32222616	     21.86373446	     -4.18262610	      1.37791466	    -59.47472477	      2.86585047	    -16.01116687	      5.03930540	     -0.38194299	      9.05961527	     -1.12280066	     -6.28293904	      3.97917099	     -3.36648124	     -3.23098236	      0.28891813	     -1.75036156	     -0.97096828
      1.45000000	      2.02730166	      4.06430968	     -0.43941999	      0.31818488	      1.07543204	      0.32214413	     22.15239785	     -4.15950264	      1.45173892	    -58.55503560	      3.34871982	    -15.62080775	      4.82229939	     -0.85701488	      9.11570184	     -0.83775783	     -6.01483740	      4.16447805	     -3.69115997	     -3.33620617	      0.27871081	     -1.77797627	     -1.22206333
      1.45416667	      1.96422398	      4.12427300	     -0.41357732	      0.32315391	      1.07544076	      0.32238340	     22.55094816	     -4.11838324	      1.59998432	    -57.59423335	      3.41832444	    -15.59958602	      4.79116641	     -1.20964682	      9.17798119	     -0.74737365	     -5.76951432	      4.16600762	     -3.67603661	     -3.35074801	      0.23743099	     -1.89275697	     -1.23932366
      1.45833333	      2.00593363	      4.16720260	     -0.37512377	      0.32821026	      1.07560604	      0.32239210	     22.79423502	     -4.09754526	      1.69156683	    -56.56199347	      3.51957065	    -15.30952370	      4.53525961	     -1.70947795	      9.24678181	     -0.52423100	     -5.46908214	      4.21976866	     -3.98698679	     -3.48495276	      0.23389766	     -1.95911683	     -1.48702060
      1.46250000	      1.93141471	      4.24560505	     -0.35518956	      0.33318033	      1.07551877	      0.32265677	     23.17233874	     -4.07601897	      1.83127513	    -55.51982577	      3.60298966	    -15.31275005	      4.50350992	     -2.05181451	      9.32671514	     -0.43796406	     -5.22214315	      4.23402404	     -3.96849947	     -3.50059236	      0.20420647	     -2.09406056	     -1.49267389
      1.46666667	      1.89824334	      4.31960610	     -0.35505133	      0.33827837	      1.07547823	      0.32283962	     23.47425369	     -4.05846068	      1.95256625	    -54.41647251	      3.63395996	    -15.26224663	      4.44397219	     -2.46707151	      9.41491532	     -0.32067232	     -4.92513966	      4.28891012	     -4.00287807	     -3.53215572	      0.30041616	     -2.22969170	     -1.52269869
      1.47083333	      1.82225920	      4.39307215	     -0.33460264	      0.34330973	      1.07533823	      0.32312225	     23.80467823	     -4.03190330	      2.07690868	    -53.26612524	      3.66235590	    -15.22100889	      4.40962148	     -2.81595122	      9.48615332	     -0.24698225	     -4.67487793	      4.33619815	     -4.03382466	     -3.55079040	      0.27992169	     -2.34861532	     -1.54378584
      1.47500000	      1.82333478	      4.44971263	     -0.31845869	      0.34844741	      1.07530525	      0.32316603	     24.01616094	     -4.02292295	      2.13911603	    -52.04306126	      3.47461366	    -15.05559662	      4.24688108	     -3.28250335	      9.56586923	     -0.06318507	     -4.36140944	      4.42910762	     -4.28574498	     -3.64911221	      0.30196838	     -2.39238957	     -1.71527356
      1.47916667	      1.72303692	      4.54307600	     -0.31517961	      0.35352727	      1.07505031	      0.32343607	     24.34026677	     -4.01864475	      2.23503426	    -50.82510585	      3.53689832	    -15.05457779	      4.22402781	     -3.61126093	      9.66206512	     -0.01195359	     -4.08961325	      4.45118113	     -4.28601119	     -3.66224545	      0.27246547	     -2.55531595	     -1.71573982
      1.48333333	      1.71513774	      4.62755380	     -0.34030432	      0.35863315	      1.07490533	      0.32366705	     24.53571264	     -4.00894084	      2.34968354	    -49.53123507	      3.43883439	    -15.00488087	      4.16850168	     -4.05824433	      9.75657955	      0.09486136	     -3.79526775	      4.50046976	     -4.34216171	     -3.69678134	      0.42990110	     -2.71414141	     -1.74688831
      1.48750000	      1.59529209	      4.71850285	     -0.34707301	      0.36375903	      1.07455166	      0.32394071	     24.83777207	     -4.00269203	      2.42888839	    -48.22241071	      3.43184742	    -14.98568827	      4.14543615	     -4.36582977	      9.85007937	      0.12595970	     -3.53231861	      4.54199497	     -4.37020943	     -3.71089350	      0.37999683	     -2.84417075	     -1.75767638
      1.49166667	      1.60330271	      4.79556411	     -0.39120674	      0.36895301	      1.07436642	      0.32411257	     24.96973823	     -3.99313799	      2.49636435	    -46.83009140	      3.17078998	    -14.92862995	      4.08442160	     -4.84012786	      9.94547668	      0.22153434	     -3.21780726	      4.61886926	     -4.46662813	     -3.75120747	      0.55924255	     -2.97101460	     -1.80679659
